<?xml version="1.0" encoding="iso-8859-1"?>
<!-- Generator: Adobe Illustrator 19.0.0, SVG Export Plug-In . SVG Version: 6.00 Build 0)  -->
<svg version="1.1" id="Layer_1" xmlns="http://www.w3.org/2000/svg" xmlns:xlink="http://www.w3.org/1999/xlink" x="0px" y="0px"
	 viewBox="0 0 512 512" style="enable-background:new 0 0 512 512;" xml:space="preserve">
<path style="fill:#61C7D2;" d="M470.929,368.359H41.071c-17.042,0-30.857-13.815-30.857-30.857V62.138
	c0-17.042,13.815-30.857,30.857-30.857H470.93c17.04,0,30.855,13.815,30.855,30.857v275.365
	C501.786,354.544,487.97,368.359,470.929,368.359z"/>
<rect x="173.646" y="368.359" style="fill:#F4AD47;" width="164.708" height="63.84"/>
<path style="fill:#61C7D2;" d="M414.963,480.718H97.037v-2.128c0-25.62,20.77-46.39,46.39-46.39h225.143
	c25.62,0,46.39,20.77,46.39,46.39v2.128H414.963z"/>
<rect x="58.095" y="82.354" style="fill:#EFEFEF;" width="395.81" height="234.933"/>
<g>
	<path style="fill:#231F20;" d="M470.929,21.067H41.071C18.424,21.067,0,39.492,0,62.138v275.365
		c0,22.645,18.424,41.07,41.071,41.07h122.36v43.411h-20.004c-31.212,0-56.605,25.393-56.605,56.605v2.128
		c0,5.641,4.574,10.214,10.214,10.214h317.925c5.641,0,10.214-4.574,10.214-10.214v-2.128c0-31.212-25.393-56.605-56.605-56.605
		h-20.004v-43.411h122.36c22.647,0,41.071-18.424,41.071-41.071V62.138C512,39.492,493.576,21.067,470.929,21.067z M403.838,470.504
		H108.162c3.684-16.067,18.097-28.09,35.265-28.09h30.218h164.708h30.218C385.74,442.414,400.153,454.436,403.838,470.504z
		 M328.14,421.985H183.86v-43.411H328.14V421.985z M491.571,337.503c0,11.381-9.259,20.642-20.642,20.642H338.354H173.646H41.071
		c-11.383,0-20.642-9.259-20.642-20.642V62.138c0-11.383,9.259-20.642,20.642-20.642H470.93c11.381,0,20.642,9.259,20.642,20.642
		v275.364H491.571z"/>
	<path style="fill:#231F20;" d="M453.905,72.14H58.095c-5.641,0-10.214,4.574-10.214,10.214v234.933
		c0,5.641,4.574,10.214,10.214,10.214h395.81c5.641,0,10.214-4.574,10.214-10.214V82.354C464.12,76.713,459.546,72.14,453.905,72.14
		z M443.691,307.072H68.309V92.569h375.382V307.072z"/>
	<path style="fill:#231F20;" d="M105.738,288.963c1.668,1.024,3.512,1.512,5.335,1.512c3.433,0,6.786-1.73,8.714-4.871
		l37.244-60.655l29.197,35.036c2.011,2.413,5.015,3.763,8.16,3.671c3.14-0.096,6.061-1.632,7.92-4.164l53.039-72.223l55.429,54.321
		c2.16,2.117,5.148,3.165,8.155,2.87c3.008-0.298,5.732-1.913,7.435-4.411l62.391-91.506l2.097,12.156
		c0.857,4.972,5.174,8.481,10.055,8.481c0.576,0,1.161-0.05,1.748-0.151c5.559-0.959,9.289-6.242,8.33-11.802l-6.384-37.027
		c-0.958-5.559-6.237-9.289-11.802-8.33c-0.082,0.014-0.16,0.038-0.241,0.054c-0.033,0.006-0.059,0.003-0.093,0.009l-37.027,7.661
		c-5.525,1.143-9.077,6.547-7.933,12.072c0.998,4.826,5.25,8.147,9.992,8.147c0.686,0,1.383-0.069,2.08-0.213l12.285-2.542
		l-55.5,81.402l-55.127-54.024c-2.116-2.072-5.026-3.122-7.976-2.886c-2.952,0.24-5.654,1.748-7.407,4.134l-52.285,71.197
		l-29.95-35.94c-2.105-2.527-5.308-3.878-8.581-3.649c-3.281,0.238-6.249,2.04-7.97,4.843l-44.688,72.778
		C99.426,279.722,100.93,286.011,105.738,288.963z"/>
</g>
<g>
</g>
<g>
</g>
<g>
</g>
<g>
</g>
<g>
</g>
<g>
</g>
<g>
</g>
<g>
</g>
<g>
</g>
<g>
</g>
<g>
</g>
<g>
</g>
<g>
</g>
<g>
</g>
<g>
</g>
</svg>
