<?xml version="1.0" encoding="iso-8859-1"?>
<!-- Generator: Adobe Illustrator 19.0.0, SVG Export Plug-In . SVG Version: 6.00 Build 0)  -->
<svg version="1.1" id="Layer_1" xmlns="http://www.w3.org/2000/svg" xmlns:xlink="http://www.w3.org/1999/xlink" x="0px" y="0px"
	 viewBox="0 0 512 512" style="enable-background:new 0 0 512 512;" xml:space="preserve">
<path style="fill:#EBEBEB;" d="M323.71,83.843c16.098-19.529,26.964-46.613,23.997-73.643
	c-23.183,0.944-51.283,15.442-67.917,34.927c-14.926,17.277-27.987,44.864-24.491,71.349
	C281.182,118.492,307.604,103.323,323.71,83.843L323.71,83.843z"/>
<path style="fill:#ADADAD;" d="M259.77,126.847c-1.768,0-3.522-0.066-5.264-0.203c-4.803-0.374-8.689-4.058-9.319-8.834
	c-4.071-30.847,11.219-61.216,26.884-79.35C290.483,16.893,321.43,1.063,347.29,0.009c5.346-0.226,9.969,3.748,10.554,9.077
	c2.996,27.287-6.822,57.658-26.264,81.244c-0.004,0.003-0.007,0.007-0.01,0.011C312.902,112.921,285.236,126.847,259.77,126.847z
	 M337.936,21.726c-18.068,3.865-37.978,15.484-50.389,30.022c-10.727,12.417-22.124,33.222-22.607,54.468
	c18.088-1.7,37.292-12.406,50.906-28.87C329.362,60.948,337.254,40.8,337.936,21.726z"/>
<path style="fill:#EBEBEB;" d="M185.8,501.77c30.861-1.23,42.525-19.962,79.826-19.962c37.304,0,47.787,19.962,80.439,19.351
	c33.203-0.619,54.237-30.167,74.562-59.856c23.504-34.344,33.172-67.59,33.746-69.297c-0.74-0.332-64.745-24.847-65.386-98.558
	c-0.611-61.706,50.326-91.305,52.605-92.771c-28.624-41.888-73.209-47.621-89.093-48.286c-37.953-3.844-74.04,22.334-93.3,22.334
	c-19.206,0-48.92-21.767-80.392-21.194c-41.353,0.613-79.485,24.05-100.785,61.088c-42.969,74.56-11.004,185.022,30.876,245.491
	C129.367,469.709,153.762,502.957,185.8,501.77L185.8,501.77z"/>
<g>
	<path style="fill:#ADADAD;" d="M184.155,512c-37.946,0-65.381-39.677-83.647-66.089c-23.422-33.82-41.251-78.102-48.91-121.488
		c-6.436-36.45-8.607-89.441,17.588-134.896c23.099-40.168,65.047-65.535,109.471-66.194c19.858-0.356,38.076,6.868,54.153,13.248
		c10.297,4.086,20.023,7.945,26.39,7.945c5.545,0,15.214-3.812,25.451-7.848c19.174-7.56,43.017-16.963,68.574-14.465
		c19.096,0.85,66.057,7.736,96.788,52.708c1.553,2.274,2.121,5.08,1.575,7.78c-0.547,2.699-2.162,5.063-4.479,6.553l-0.48,0.3
		c-8.011,4.952-47.954,32.264-47.444,83.791c0.554,63.592,52.937,86.732,58.909,89.16c0.25,0.102,0.404,0.17,0.461,0.196
		c4.783,2.15,7.157,7.579,5.486,12.551l-0.103,0.328c-3.542,11.336-14.032,40.996-34.896,71.481
		c-19.387,28.319-43.513,63.561-82.789,64.293c-18.18,0.348-30.253-4.889-41.941-9.948c-11.172-4.834-21.724-9.401-38.688-9.401
		c-17.908,0-29.02,4.734-40.784,9.746c-11.033,4.701-22.443,9.562-38.636,10.207c-0.009,0-0.019,0-0.029,0.001
		C185.502,511.988,184.825,512,184.155,512z M180.022,143.72c-0.344,0-0.686,0.003-1.029,0.009
		c-37.305,0.553-72.593,22.001-92.13,55.975c-38.959,67.602-13.404,171.324,30.419,234.598
		c21.248,30.725,42.453,58.219,68.129,57.276c12.443-0.499,21.246-4.249,31.436-8.591c12.517-5.333,26.707-11.378,48.779-11.378
		c21.187,0,34.787,5.886,46.788,11.077c10.251,4.437,19.15,8.287,32.196,8.287c0.418,0,0.837-0.003,1.263-0.011
		c26.703-0.498,44.338-23.284,66.338-55.42c15.591-22.781,24.907-45.018,29.637-58.242c-19.407-10.426-62.509-40.662-63.059-103.764
		c-0.269-27.137,8.857-52.786,26.389-74.161c7.611-9.278,15.491-16.222,21.848-21.049c-25.479-30.314-60.341-35.133-74.952-35.744
		c-0.201-0.008-0.402-0.022-0.602-0.043c-20.747-2.1-41.248,5.984-59.34,13.116c-12.616,4.974-23.512,9.27-32.933,9.27
		c-10.267,0-21.226-4.349-33.913-9.383C211.301,149.994,195.492,143.72,180.022,143.72z"/>
	<path style="fill:#ADADAD;" d="M135.69,430.493c-3.233,0-6.413-1.534-8.393-4.393c-29.217-42.185-53.747-112.492-42.684-174.469
		c0.989-5.545,6.291-9.242,11.833-8.248c5.545,0.989,9.238,6.288,8.248,11.833c-9.987,55.951,13.408,121.782,39.372,159.269
		c3.208,4.631,2.053,10.985-2.577,14.192C139.717,429.905,137.694,430.493,135.69,430.493z"/>
	<path style="fill:#ADADAD;" d="M105.929,228.585c-1.516,0-3.054-0.34-4.504-1.055c-5.052-2.492-7.127-8.607-4.636-13.659
		c1.202-2.438,2.491-4.852,3.831-7.176c2.813-4.88,9.048-6.557,13.93-3.742c4.88,2.813,6.556,9.05,3.742,13.93
		c-1.121,1.945-2.201,3.967-3.209,6.012C113.308,226.496,109.69,228.585,105.929,228.585z"/>
</g>
<g>
</g>
<g>
</g>
<g>
</g>
<g>
</g>
<g>
</g>
<g>
</g>
<g>
</g>
<g>
</g>
<g>
</g>
<g>
</g>
<g>
</g>
<g>
</g>
<g>
</g>
<g>
</g>
<g>
</g>
</svg>
