<?xml version="1.0" encoding="iso-8859-1"?>
<!-- Generator: Adobe Illustrator 19.0.0, SVG Export Plug-In . SVG Version: 6.00 Build 0)  -->
<svg version="1.1" id="Layer_1" xmlns="http://www.w3.org/2000/svg" xmlns:xlink="http://www.w3.org/1999/xlink" x="0px" y="0px"
	 viewBox="0 0 512 512" style="enable-background:new 0 0 512 512;" xml:space="preserve">
<path style="fill:#FFA81E;" d="M430.926,431.115c-96.501,96.601-252.872,96.712-349.507,0.334c-0.111-0.1-0.234-0.223-0.345-0.334
	c-96.601-96.712-96.601-253.518,0-350.23c96.612-96.712,253.24-96.712,349.852,0c0.178,0.178,0.356,0.356,0.523,0.534
	C527.527,178.176,527.349,334.581,430.926,431.115z"/>
<path style="fill:#FF8800;" d="M430.926,431.115c-96.501,96.601-252.872,96.712-349.507,0.334l350.03-350.03
	C527.527,178.176,527.349,334.581,430.926,431.115z"/>
<path style="fill:#3C3A41;" d="M511.727,256c0-68.379-26.598-132.664-74.897-181.015c-0.002-0.002-0.003-0.003-0.006-0.006
	l-0.001-0.001c-0.001-0.001-0.001-0.001-0.002-0.002C388.522,26.627,324.305,0,256,0C187.691,0,123.471,26.63,75.171,74.985
	C26.871,123.336,0.273,187.621,0.273,256s26.598,132.664,74.898,181.015c0.002,0.002,0.003,0.003,0.006,0.006l0.001,0.001
	c0.001,0.001,0.001,0.001,0.002,0.002C123.479,485.373,187.695,512,256,512c68.304,0,132.522-26.627,180.822-74.976
	c0.001-0.001,0.001-0.001,0.002-0.002l0.001-0.001c0.002-0.001,0.003-0.003,0.006-0.006
	C485.129,388.664,511.727,324.379,511.727,256z M430.809,419.19L321.038,309.309c46.899-43.795,109.432-66.904,173.636-64.067
	C497.446,307.459,476.152,370.551,430.809,419.19z M18.664,283.524c3.084,0.111,6.165,0.17,9.24,0.17
	c64.855,0,127.38-24.657,174.848-69.168l41.441,41.483L81.191,419.19C45.154,380.533,24.308,332.748,18.664,283.524z
	 M255.992,267.82l41.439,41.48c-46.609,49.804-71.412,116.176-68.919,184.432c-50.717-5.777-97.857-27.502-135.525-62.729
	L255.992,267.82z M267.792,256.009l68.867-68.943c3.258-3.262,3.255-8.547-0.007-11.805c-3.263-3.259-8.548-3.256-11.806,0.007
	l-68.854,68.93l-41.439-41.48c46.62-49.806,71.43-116.185,68.934-184.449c50.717,5.777,97.857,27.502,135.525,62.729l-60.824,60.891
	c-3.258,3.262-3.255,8.547,0.007,11.805c1.631,1.628,3.765,2.442,5.9,2.442c2.138,0,4.276-0.816,5.907-2.449l60.808-60.876
	c36.04,38.66,56.887,86.45,62.53,135.678c-68.137-2.456-134.389,22.368-184.109,69.001L267.792,256.009z M266.731,16.943
	c2.868,64.309-20.214,126.968-63.987,173.953L92.97,81.012c44.4-41.53,101.963-64.316,163.03-64.316
	C259.591,16.696,263.167,16.786,266.731,16.943z M81.174,92.828l109.771,109.88c-46.899,43.784-109.431,66.889-173.618,64.05
	C14.555,204.548,35.843,141.464,81.174,92.828z M245.27,495.057c-2.868-64.302,20.208-126.953,63.97-173.935l109.772,109.882
	C374.614,472.525,317.059,495.304,256,495.304C252.41,495.304,248.834,495.214,245.27,495.057z"/>
<g>
</g>
<g>
</g>
<g>
</g>
<g>
</g>
<g>
</g>
<g>
</g>
<g>
</g>
<g>
</g>
<g>
</g>
<g>
</g>
<g>
</g>
<g>
</g>
<g>
</g>
<g>
</g>
<g>
</g>
</svg>
