<?xml version="1.0" encoding="iso-8859-1"?>
<!-- Generator: Adobe Illustrator 19.0.0, SVG Export Plug-In . SVG Version: 6.00 Build 0)  -->
<svg version="1.1" id="Layer_1" xmlns="http://www.w3.org/2000/svg" xmlns:xlink="http://www.w3.org/1999/xlink" x="0px" y="0px"
	 viewBox="0 0 512 512" style="enable-background:new 0 0 512 512;" xml:space="preserve">
<path style="fill:#E4F5F4;" d="M489.642,287.273V422.92L431.5,394.48c-5.556-2.716-12.241-0.425-14.958,5.131
	c-0.179,0.38-0.347,0.76-0.481,1.14l-15.159-6.786v-77.817l15.394-6.104c0.078,0.179,0.157,0.358,0.246,0.537
	c2.716,5.545,9.413,7.848,14.958,5.131L489.642,287.273z"/>
<g>
	<path style="fill:#31CCC9;" d="M378.545,272.886v164.421H66.292V272.886H378.545z M336.903,334.594
		c0-6.864-5.567-12.442-12.442-12.442c-3.052,0-5.847,1.096-8.004,2.918c-3.152,2.258-5.198,5.947-5.198,10.117
		c0,6.875,5.567,12.442,12.442,12.442c3.052,0,5.847-1.096,8.004-2.918C334.857,342.453,336.903,338.764,336.903,334.594z
		 M336.903,375.599c0-6.864-5.567-12.442-12.442-12.442c-3.052,0-5.847,1.096-8.004,2.918c-3.152,2.258-5.198,5.947-5.198,10.117
		c0,6.875,5.567,12.442,12.442,12.442c3.052,0,5.847-1.096,8.004-2.918C334.857,383.458,336.903,379.769,336.903,375.599z
		 M269.258,388.041v-65.889c0-5.556-4.505-10.061-10.061-10.061H123.92c-5.556,0-10.061,4.505-10.061,10.061v65.889
		c0,5.556,4.505,10.061,10.061,10.061h135.278C264.753,398.102,269.258,393.597,269.258,388.041z"/>
	<path style="fill:#31CCC9;" d="M299.341,74.693c48.483,0,87.923,39.44,87.923,87.923c0,48.472-39.44,87.912-87.923,87.912
		c-48.472,0-87.912-39.44-87.912-87.912C211.429,114.132,250.869,74.693,299.341,74.693z M352.363,162.616
		c0-29.233-23.789-53.022-53.022-53.022s-53.011,23.789-53.011,53.022c0,29.233,23.778,53.011,53.011,53.011
		S352.363,191.849,352.363,162.616z"/>
</g>
<path style="fill:#FFDB6F;" d="M299.341,131.952c16.914,0,30.664,13.761,30.664,30.664s-13.75,30.653-30.664,30.653
	c-16.903,0-30.653-13.75-30.653-30.653S282.438,131.952,299.341,131.952z"/>
<rect x="133.981" y="332.219" style="fill:#F27258;" width="115.155" height="45.767"/>
<path style="fill:#31CCC9;" d="M126.133,129.559c33.358,0,60.49,27.132,60.49,60.49c0,33.347-27.132,60.479-60.49,60.479
	c-33.347,0-60.49-27.132-60.49-60.479C65.643,156.691,92.786,129.559,126.133,129.559z M162.8,190.049
	c0-20.223-16.444-36.667-36.667-36.667c-20.212,0-36.656,16.444-36.656,36.667c0,20.212,16.444,36.656,36.656,36.656
	C146.356,226.705,162.8,210.261,162.8,190.049z"/>
<path style="fill:#FFDB6F;" d="M126.133,173.504c9.122,0,16.545,7.423,16.545,16.545c0,9.111-7.423,16.534-16.545,16.534
	c-9.111,0-16.534-7.423-16.534-16.534C109.599,180.927,117.022,173.504,126.133,173.504z"/>
<g>
	<path style="fill:#201F2E;" d="M506.735,259.874c-3.264-2.046-7.356-2.247-10.821-0.559l-74.24,36.321
		c-5.366,2.616-7.691,8.977-5.377,14.41c0.078,0.179,0.157,0.358,0.246,0.537c2.716,5.545,9.413,7.848,14.958,5.131l58.142-28.439
		V422.92L431.5,394.48c-5.556-2.716-12.241-0.425-14.958,5.131c-0.179,0.38-0.347,0.76-0.481,1.14
		c-1.912,5.299,0.447,11.28,5.612,13.806l74.24,36.321c1.554,0.76,3.231,1.129,4.908,1.129c2.057,0,4.114-0.559,5.914-1.688
		c3.275-2.046,5.265-5.623,5.265-9.491V269.353C512,265.497,510.01,261.919,506.735,259.874z"/>
	<path style="fill:#201F2E;" d="M409.622,162.616c0-60.814-49.467-110.281-110.281-110.281c-52.81,0-97.056,37.316-107.788,86.973
		c-15.17-19.519-38.836-32.106-65.42-32.106c-45.678,0-82.848,37.159-82.848,82.848c0,23.834,10.128,45.353,26.304,60.479H55.113
		c-6.171,0-11.179,5.008-11.179,11.179v57.751H11.179C4.997,319.458,0,324.455,0,330.637v48.931c0,6.171,4.997,11.179,11.179,11.179
		h32.755v57.74c0,6.182,5.008,11.179,11.179,11.179h334.611c6.171,0,11.179-4.997,11.179-11.179v-54.52v-77.817v-54.442
		c0-6.171-5.008-11.179-11.179-11.179h-23.901C392.407,230.383,409.622,198.478,409.622,162.616z M22.358,341.816h21.576v26.573
		H22.358V341.816z M378.545,437.307H66.292V272.886h312.253V437.307z M186.623,190.049c0,33.347-27.132,60.479-60.49,60.479
		c-33.347,0-60.49-27.132-60.49-60.479c0-33.358,27.143-60.49,60.49-60.49C159.491,129.559,186.623,156.691,186.623,190.049z
		 M232.859,250.528h-50.183c9.491-8.876,16.903-19.955,21.408-32.419C211.452,230.719,221.267,241.741,232.859,250.528z
		 M299.341,250.528c-48.472,0-87.912-39.44-87.912-87.912c0-48.483,39.44-87.923,87.912-87.923c48.483,0,87.923,39.44,87.923,87.923
		C387.264,211.088,347.825,250.528,299.341,250.528z"/>
	<path style="fill:#201F2E;" d="M299.341,109.594c-29.233,0-53.011,23.789-53.011,53.022s23.778,53.011,53.011,53.011
		s53.022-23.778,53.022-53.011C352.363,133.383,328.574,109.594,299.341,109.594z M299.341,193.269
		c-16.903,0-30.653-13.75-30.653-30.653s13.75-30.664,30.653-30.664c16.914,0,30.664,13.761,30.664,30.664
		S316.255,193.269,299.341,193.269z"/>
	<path style="fill:#201F2E;" d="M324.46,347.037c2.705,0,5.209-0.861,7.244-2.325c3.152-2.258,5.198-5.947,5.198-10.117
		c0-6.864-5.567-12.442-12.442-12.442c-3.052,0-5.847,1.096-8.004,2.918c-2.716,2.292-4.438,5.701-4.438,9.525
		C312.018,341.469,317.585,347.037,324.46,347.037z"/>
	<path style="fill:#201F2E;" d="M324.46,388.041c2.705,0,5.209-0.861,7.244-2.325c3.152-2.258,5.198-5.947,5.198-10.117
		c0-6.864-5.567-12.442-12.442-12.442c-3.052,0-5.847,1.096-8.004,2.918c-2.716,2.292-4.438,5.701-4.438,9.525
		C312.018,382.474,317.585,388.041,324.46,388.041z"/>
	<path style="fill:#201F2E;" d="M123.92,398.102h135.278c5.556,0,10.061-4.505,10.061-10.061v-65.889
		c0-5.556-4.505-10.061-10.061-10.061H123.92c-5.556,0-10.061,4.505-10.061,10.061v65.889
		C113.859,393.597,118.364,398.102,123.92,398.102z M133.981,332.213h115.155v45.767H133.981V332.213z"/>
	<path style="fill:#201F2E;" d="M126.133,226.705c20.223,0,36.667-16.444,36.667-36.656c0-20.223-16.444-36.667-36.667-36.667
		c-20.212,0-36.656,16.444-36.656,36.667C89.477,210.261,105.921,226.705,126.133,226.705z M126.133,173.504
		c9.122,0,16.545,7.423,16.545,16.545c0,9.111-7.423,16.534-16.545,16.534c-9.111,0-16.534-7.423-16.534-16.534
		C109.599,180.927,117.022,173.504,126.133,173.504z"/>
</g>
<rect x="22.358" y="341.81" style="fill:#E4F5F4;" width="21.576" height="26.573"/>
<g>
</g>
<g>
</g>
<g>
</g>
<g>
</g>
<g>
</g>
<g>
</g>
<g>
</g>
<g>
</g>
<g>
</g>
<g>
</g>
<g>
</g>
<g>
</g>
<g>
</g>
<g>
</g>
<g>
</g>
</svg>
