<?xml version="1.0" encoding="iso-8859-1"?>
<!-- Generator: Adobe Illustrator 19.0.0, SVG Export Plug-In . SVG Version: 6.00 Build 0)  -->
<svg version="1.1" id="Layer_1" xmlns="http://www.w3.org/2000/svg" xmlns:xlink="http://www.w3.org/1999/xlink" x="0px" y="0px"
	 viewBox="0 0 512 512" style="enable-background:new 0 0 512 512;" xml:space="preserve">
<rect x="106.025" y="127.991" transform="matrix(-0.7071 0.7071 -0.7071 -0.7071 633.5432 293.487)" style="fill:#F67656;" width="299.927" height="299.927"/>
<path id="SVGCleanerId_0" style="fill:#F67656;" d="M299.924,171.913c0,82.831-67.133,149.965-149.97,149.965
	C67.136,321.878,0,254.739,0,171.913C0,89.105,67.136,21.958,149.965,21.958C232.783,21.958,299.924,89.105,299.924,171.913z"/>
<g>
	<path id="SVGCleanerId_0_1_" style="fill:#F67656;" d="M299.924,171.913c0,82.831-67.133,149.965-149.97,149.965
		C67.136,321.878,0,254.739,0,171.913C0,89.105,67.136,21.958,149.965,21.958C232.783,21.958,299.924,89.105,299.924,171.913z"/>
</g>
<path style="fill:#F67656;" d="M212.088,171.913c0,82.831,67.151,149.965,149.965,149.965c82.806,0,149.947-67.139,149.947-149.965
	c0-82.808-67.144-149.957-149.957-149.957C279.24,21.958,212.088,89.105,212.088,171.913z"/>
<path style="fill:#FFFFFF;" d="M50.988,188.481c-9.149,0-16.566-7.416-16.566-16.566c0-63.703,51.832-115.533,115.543-115.533
	c9.147,0,16.566,7.416,16.566,16.566s-7.416,16.566-16.566,16.566c-45.443,0-82.412,36.969-82.412,82.404
	C67.553,181.062,60.134,188.481,50.988,188.481z"/>
<path style="fill:#E66847;" d="M362.043,21.958c-41.4,0-78.894,16.791-106.033,43.922v424.164l212.078-212.086l0,0
	C495.224,250.828,512,213.339,512,171.913C512,89.105,444.856,21.958,362.043,21.958z"/>
<g>
</g>
<g>
</g>
<g>
</g>
<g>
</g>
<g>
</g>
<g>
</g>
<g>
</g>
<g>
</g>
<g>
</g>
<g>
</g>
<g>
</g>
<g>
</g>
<g>
</g>
<g>
</g>
<g>
</g>
</svg>
