<?xml version="1.0" encoding="iso-8859-1"?>
<!-- Generator: Adobe Illustrator 18.0.0, SVG Export Plug-In . SVG Version: 6.00 Build 0)  -->
<!DOCTYPE svg PUBLIC "-//W3C//DTD SVG 1.1//EN" "http://www.w3.org/Graphics/SVG/1.1/DTD/svg11.dtd">
<svg version="1.1" id="Capa_1" xmlns="http://www.w3.org/2000/svg" xmlns:xlink="http://www.w3.org/1999/xlink" x="0px" y="0px"
	 viewBox="0 0 58 58" style="enable-background:new 0 0 58 58;" xml:space="preserve">
<defs>
  <style type="text/css">
    @font-face {
      font-family: 'Focus Regular';
      src: url('../../../css/fonts/focus_regular/focus-regular-webfont.woff');
    }
  </style>
</defs>	 
<g>
	<path style="fill:#E5E5DA;" d="M56.414,7.5l-3.707,3.707C52.512,11.402,52.256,11.5,52,11.5s-0.512-0.098-0.707-0.293
		c-0.391-0.391-0.391-1.023,0-1.414L53.586,7.5h-4.172l-3.707,3.707C45.512,11.402,45.256,11.5,45,11.5s-0.512-0.098-0.707-0.293
		c-0.391-0.391-0.391-1.023,0-1.414L46.586,7.5h-4.172l-3.707,3.707C38.512,11.402,38.256,11.5,38,11.5s-0.512-0.098-0.707-0.293
		c-0.391-0.391-0.391-1.023,0-1.414L39.586,7.5h-4.172l-3.707,3.707C31.512,11.402,31.256,11.5,31,11.5s-0.512-0.098-0.707-0.293
		c-0.391-0.391-0.391-1.023,0-1.414L32.586,7.5h-4.172l-3.707,3.707C24.512,11.402,24.256,11.5,24,11.5s-0.512-0.098-0.707-0.293
		c-0.391-0.391-0.391-1.023,0-1.414L25.586,7.5h-4.172l-3.707,3.707C17.512,11.402,17.256,11.5,17,11.5s-0.512-0.098-0.707-0.293
		c-0.391-0.391-0.391-1.023,0-1.414L18.586,7.5h-4.172l-3.707,3.707C10.512,11.402,10.256,11.5,10,11.5s-0.512-0.098-0.707-0.293
		c-0.391-0.391-0.391-1.023,0-1.414L11.586,7.5H7.414l-3.707,3.707C3.512,11.402,3.256,11.5,3,11.5s-0.512-0.098-0.707-0.293
		c-0.391-0.391-0.391-1.023,0-1.414L4.586,7.5H0v0.104V50.5h1.586l3.707-3.707c0.391-0.391,1.023-0.391,1.414,0s0.391,1.023,0,1.414
		L4.414,50.5h4.172l3.707-3.707c0.391-0.391,1.023-0.391,1.414,0s0.391,1.023,0,1.414L11.414,50.5h4.172l3.707-3.707
		c0.391-0.391,1.023-0.391,1.414,0s0.391,1.023,0,1.414L18.414,50.5h4.172l3.707-3.707c0.391-0.391,1.023-0.391,1.414,0
		s0.391,1.023,0,1.414L25.414,50.5h4.172l3.707-3.707c0.391-0.391,1.023-0.391,1.414,0s0.391,1.023,0,1.414L32.414,50.5h4.172
		l3.707-3.707c0.391-0.391,1.023-0.391,1.414,0s0.391,1.023,0,1.414L39.414,50.5h4.172l3.707-3.707c0.391-0.391,1.023-0.391,1.414,0
		s0.391,1.023,0,1.414L46.414,50.5h4.172l3.707-3.707c0.391-0.391,1.023-0.391,1.414,0s0.391,1.023,0,1.414L53.414,50.5H58V7.604
		V7.5H56.414z"/>
	<path style="fill:#7FB1C8;" d="M6.707,46.793c-0.391-0.391-1.023-0.391-1.414,0L1.586,50.5h2.828l2.293-2.293
		C7.098,47.816,7.098,47.184,6.707,46.793z"/>
	<path style="fill:#E59677;" d="M13.707,46.793c-0.391-0.391-1.023-0.391-1.414,0L8.586,50.5h2.828l2.293-2.293
		C14.098,47.816,14.098,47.184,13.707,46.793z"/>
	<path style="fill:#7FB1C8;" d="M20.707,46.793c-0.391-0.391-1.023-0.391-1.414,0L15.586,50.5h2.828l2.293-2.293
		C21.098,47.816,21.098,47.184,20.707,46.793z"/>
	<path style="fill:#E59677;" d="M27.707,46.793c-0.391-0.391-1.023-0.391-1.414,0L22.586,50.5h2.828l2.293-2.293
		C28.098,47.816,28.098,47.184,27.707,46.793z"/>
	<path style="fill:#7FB1C8;" d="M34.707,46.793c-0.391-0.391-1.023-0.391-1.414,0L29.586,50.5h2.828l2.293-2.293
		C35.098,47.816,35.098,47.184,34.707,46.793z"/>
	<path style="fill:#E59677;" d="M41.707,46.793c-0.391-0.391-1.023-0.391-1.414,0L36.586,50.5h2.828l2.293-2.293
		C42.098,47.816,42.098,47.184,41.707,46.793z"/>
	<path style="fill:#7FB1C8;" d="M48.707,46.793c-0.391-0.391-1.023-0.391-1.414,0L43.586,50.5h2.828l2.293-2.293
		C49.098,47.816,49.098,47.184,48.707,46.793z"/>
	<path style="fill:#E59677;" d="M55.707,46.793c-0.391-0.391-1.023-0.391-1.414,0L50.586,50.5h2.828l2.293-2.293
		C56.098,47.816,56.098,47.184,55.707,46.793z"/>
	<path style="fill:#7FB1C8;" d="M2.293,11.207C2.488,11.402,2.744,11.5,3,11.5s0.512-0.098,0.707-0.293L7.414,7.5H4.586L2.293,9.793
		C1.902,10.184,1.902,10.816,2.293,11.207z"/>
	<path style="fill:#E59677;" d="M9.293,11.207C9.488,11.402,9.744,11.5,10,11.5s0.512-0.098,0.707-0.293L14.414,7.5h-2.828
		L9.293,9.793C8.902,10.184,8.902,10.816,9.293,11.207z"/>
	<path style="fill:#7FB1C8;" d="M16.293,11.207C16.488,11.402,16.744,11.5,17,11.5s0.512-0.098,0.707-0.293L21.414,7.5h-2.828
		l-2.293,2.293C15.902,10.184,15.902,10.816,16.293,11.207z"/>
	<path style="fill:#E59677;" d="M23.293,11.207C23.488,11.402,23.744,11.5,24,11.5s0.512-0.098,0.707-0.293L28.414,7.5h-2.828
		l-2.293,2.293C22.902,10.184,22.902,10.816,23.293,11.207z"/>
	<path style="fill:#7FB1C8;" d="M30.293,11.207C30.488,11.402,30.744,11.5,31,11.5s0.512-0.098,0.707-0.293L35.414,7.5h-2.828
		l-2.293,2.293C29.902,10.184,29.902,10.816,30.293,11.207z"/>
	<path style="fill:#E59677;" d="M37.293,11.207C37.488,11.402,37.744,11.5,38,11.5s0.512-0.098,0.707-0.293L42.414,7.5h-2.828
		l-2.293,2.293C36.902,10.184,36.902,10.816,37.293,11.207z"/>
	<path style="fill:#7FB1C8;" d="M44.293,11.207C44.488,11.402,44.744,11.5,45,11.5s0.512-0.098,0.707-0.293L49.414,7.5h-2.828
		l-2.293,2.293C43.902,10.184,43.902,10.816,44.293,11.207z"/>
	<path style="fill:#E59677;" d="M51.293,11.207C51.488,11.402,51.744,11.5,52,11.5s0.512-0.098,0.707-0.293L56.414,7.5h-2.828
		l-2.293,2.293C50.902,10.184,50.902,10.816,51.293,11.207z"/>
	<rect x="43" y="19.5" style="fill:#D75A4A;" width="8" height="8"/>
	<text x="3" y="16" font-family="Focus Regular" font-size="2" style="fill: #7E838C;">fredy-edwin esse</text>
	<text x="3" y="20" font-family="Focus Regular" font-size="2" style="letter-spacing: -0.1; fill: #7E838C;">e-mail: </text>
	<text x="11" y="20" font-family="Focus Regular" font-size="2" style="letter-spacing: -0.1; fill: #fff;"><a href="mailto:fred.esse@gmail.com">fred. esse@gmail. com</a></text>
	<text x="3" y="24" font-family="Focus Regular" font-size="2" style="letter-spacing: -0.1; fill: #7E838C;">skype: edwin. esse</text>
	<g>
		<a href="https://www.linkedin.com/in/fredy-edwin-esse-a4aa99132?trk=hp-identity-name" target="_blank">
		<svg version="1.1" id="Capa_1" xmlns="http://www.w3.org/2000/svg" xmlns:xlink="http://www.w3.org/1999/xlink" x="3px" y="36px"
	 viewBox="0 0 1000 1000" style="enable-background:new 0 0 112.196 112.196;" xml:space="preserve">
	<g>
	<circle style="fill:#007AB9;" cx="56.098" cy="56.097" r="56.098"/>
	<g>
		<path style="fill:#F1F2F2;" d="M89.616,60.611v23.128H76.207V62.161c0-5.418-1.936-9.118-6.791-9.118
			c-3.705,0-5.906,2.491-6.878,4.903c-0.353,0.862-0.444,2.059-0.444,3.268v22.524H48.684c0,0,0.18-36.546,0-40.329h13.411v5.715
			c-0.027,0.045-0.065,0.089-0.089,0.132h0.089v-0.132c1.782-2.742,4.96-6.662,12.085-6.662
			C83.002,42.462,89.616,48.226,89.616,60.611L89.616,60.611z M34.656,23.969c-4.587,0-7.588,3.011-7.588,6.967
			c0,3.872,2.914,6.97,7.412,6.97h0.087c4.677,0,7.585-3.098,7.585-6.97C42.063,26.98,39.244,23.969,34.656,23.969L34.656,23.969z
			 M27.865,83.739H41.27V43.409H27.865V83.739z"/>
	</g>
</g>
<g>
</g>
<g>
</g>
<g>
</g>
<g>
</g>
<g>
</g>
<g>
</g>
<g>
</g>
<g>
</g>
<g>
</g>
<g>
</g>
<g>
</g>
<g>
</g>
<g>
</g>
<g>
</g>
<g>
</g>
</svg>
	</a>
	</g>
	<g>
	<a href="https://github.com/fredesse" target="_blank">
	<svg version="1.1" id="Layer_1" xmlns="http://www.w3.org/2000/svg" xmlns:xlink="http://www.w3.org/1999/xlink" x="13px" y="36px"
	 viewBox="0 0 2500 2500" style="enable-background:new 0 0 291.32 291.32;" xml:space="preserve">
<g>
	<path style="fill:#2B414D;" d="M145.66,0C65.219,0,0,65.219,0,145.66c0,80.45,65.219,145.66,145.66,145.66
		s145.66-65.21,145.66-145.66C291.319,65.219,226.1,0,145.66,0z M186.462,256.625c-0.838-11.398-1.775-25.518-1.83-31.235
		c-0.364-4.388-0.838-15.549-11.434-22.677c42.068-3.523,62.087-26.774,63.526-57.499c1.202-17.497-5.754-32.883-18.107-45.3
		c0.628-13.282-0.401-29.023-1.256-35.941c-9.486-2.731-31.608,8.949-37.79,13.947c-13.037-5.062-44.945-6.837-64.336,0
		c-13.747-9.668-29.396-15.64-37.926-13.974c-7.875,17.452-2.813,33.948-1.275,35.914c-10.142,9.268-24.289,20.675-20.447,44.572
		c6.163,35.04,30.816,53.94,70.508,58.564c-8.466,1.73-9.896,8.048-10.606,10.788c-26.656,10.997-34.275-6.791-37.644-11.425
		c-11.188-13.847-21.23-9.832-21.849-9.614c-0.601,0.218-1.056,1.092-0.992,1.511c0.564,2.986,6.655,6.018,6.955,6.263
		c8.257,6.154,11.316,17.27,13.2,20.438c11.844,19.473,39.374,11.398,39.638,11.562c0.018,1.702-0.191,16.032-0.355,27.184
		C64.245,245.992,27.311,200.2,27.311,145.66c0-65.365,52.984-118.348,118.348-118.348S264.008,80.295,264.008,145.66
		C264.008,196.668,231.69,239.992,186.462,256.625z"/>
</g>
<g>
</g>
<g>
</g>
<g>
</g>
<g>
</g>
<g>
</g>
<g>
</g>
<g>
</g>
<g>
</g>
<g>
</g>
<g>
</g>
<g>
</g>
<g>
</g>
<g>
</g>
<g>
</g>
<g>
</g>
</svg>
</a>
	</g>
	<g>
		<a href="https://twitter.com/fe_esse" target="_blank">
		<svg version="1.1" id="Capa_1" xmlns="http://www.w3.org/2000/svg" xmlns:xlink="http://www.w3.org/1999/xlink" x="23px" y="36px"
	 viewBox="0 0 1000 1000" style="enable-background:new 0 0 112.197 112.197;" xml:space="preserve">
<g>
	<circle style="fill:#55ACEE;" cx="56.099" cy="56.098" r="56.098"/>
	<g>
		<path style="fill:#F1F2F2;" d="M90.461,40.316c-2.404,1.066-4.99,1.787-7.702,2.109c2.769-1.659,4.894-4.284,5.897-7.417
			c-2.591,1.537-5.462,2.652-8.515,3.253c-2.446-2.605-5.931-4.233-9.79-4.233c-7.404,0-13.409,6.005-13.409,13.409
			c0,1.051,0.119,2.074,0.349,3.056c-11.144-0.559-21.025-5.897-27.639-14.012c-1.154,1.98-1.816,4.285-1.816,6.742
			c0,4.651,2.369,8.757,5.965,11.161c-2.197-0.069-4.266-0.672-6.073-1.679c-0.001,0.057-0.001,0.114-0.001,0.17
			c0,6.497,4.624,11.916,10.757,13.147c-1.124,0.308-2.311,0.471-3.532,0.471c-0.866,0-1.705-0.083-2.523-0.239
			c1.706,5.326,6.657,9.203,12.526,9.312c-4.59,3.597-10.371,5.74-16.655,5.74c-1.08,0-2.15-0.063-3.197-0.188
			c5.931,3.806,12.981,6.025,20.553,6.025c24.664,0,38.152-20.432,38.152-38.153c0-0.581-0.013-1.16-0.039-1.734
			C86.391,45.366,88.664,43.005,90.461,40.316L90.461,40.316z"/>
	</g>
</g>
<g>
</g>
<g>
</g>
<g>
</g>
<g>
</g>
<g>
</g>
<g>
</g>
<g>
</g>
<g>
</g>
<g>
</g>
<g>
</g>
<g>
</g>
<g>
</g>
<g>
</g>
<g>
</g>
<g>
</g>
</svg>
</a>
	</g>
</g>
<g>
</g>
<g>
</g>
<g>
</g>
<g>
</g>
<g>
</g>
<g>
</g>
<g>
</g>
<g>
</g>
<g>
</g>
<g>
</g>
<g>
</g>
<g>
</g>
<g>
</g>
<g>
</g>
<g>
</g>
</svg>
