<?xml version="1.0" encoding="iso-8859-1"?>
<!-- Generator: Adobe Illustrator 19.0.0, SVG Export Plug-In . SVG Version: 6.00 Build 0)  -->
<svg version="1.1" id="Layer_1" xmlns="http://www.w3.org/2000/svg" xmlns:xlink="http://www.w3.org/1999/xlink" x="0px" y="0px"
	 viewBox="0 0 512 512" style="enable-background:new 0 0 512 512;" xml:space="preserve">
<path style="fill:#F4AD47;" d="M470.929,388.788H41.071c-17.042,0-30.857-13.815-30.857-30.857V41.709
	c0-17.042,13.815-30.857,30.857-30.857H470.93c17.04,0,30.855,13.815,30.855,30.857v316.223
	C501.786,374.973,487.97,388.788,470.929,388.788z"/>
<rect x="173.646" y="388.788" style="fill:#61C7D2;" width="164.708" height="63.84"/>
<path style="fill:#F4AD47;" d="M414.963,501.147H97.037v-2.128c0-25.62,20.77-46.39,46.39-46.39h225.143
	c25.62,0,46.39,20.77,46.39,46.39v2.128H414.963z"/>
<rect x="58.095" y="61.925" style="fill:#EFEFEF;" width="395.81" height="275.791"/>
<path style="fill:#E8594F;" d="M261.959,215.142h-11.916c-16.454,0-29.792-13.339-29.792-29.792v-42.56
	c0-16.454,13.339-29.792,29.792-29.792h11.916c16.454,0,29.792,13.339,29.792,29.792v42.56
	C291.751,201.803,278.412,215.142,261.959,215.142z"/>
<g>
	<path style="fill:#231F20;" d="M470.929,0.638H41.071C18.424,0.638,0,19.063,0,41.709v316.222
		c0,22.647,18.424,41.071,41.071,41.071h122.36v43.411h-20.004c-31.212,0-56.605,25.393-56.605,56.605v2.128
		c0,5.641,4.574,10.214,10.214,10.214h317.925c5.641,0,10.214-4.574,10.214-10.214v-2.128c0-31.212-25.393-56.605-56.605-56.605
		h-20.004v-43.411h122.36c22.647,0,41.071-18.424,41.071-41.071V41.709C512,19.063,493.576,0.638,470.929,0.638z M403.837,490.933
		H108.162c3.682-16.069,18.096-28.09,35.265-28.09h30.218h164.708h30.218C385.742,462.843,400.154,474.864,403.837,490.933z
		 M328.14,442.414H183.86v-43.411H328.14V442.414z M491.571,357.931c0,11.381-9.261,20.642-20.642,20.642H338.354H173.646H41.071
		c-11.383,0-20.642-9.261-20.642-20.642V41.709c0-11.381,9.259-20.642,20.642-20.642H470.93c11.381,0,20.642,9.261,20.642,20.642
		v316.222H491.571z"/>
	<path style="fill:#231F20;" d="M453.905,51.711H58.095c-5.641,0-10.214,4.574-10.214,10.214v275.791
		c0,5.641,4.574,10.214,10.214,10.214h395.81c5.641,0,10.214-4.574,10.214-10.214V61.925
		C464.12,56.284,459.546,51.711,453.905,51.711z M443.691,327.501H68.309V72.14h375.382V327.501z"/>
	<path style="fill:#231F20;" d="M245.786,266.101v21.819h-27.451c-5.641,0-10.214,4.574-10.214,10.214s4.574,10.214,10.214,10.214
		h75.332c5.641,0,10.214-4.574,10.214-10.214s-4.574-10.214-10.214-10.214h-27.451v-21.818c42.617-2.22,76.608-37.59,76.608-80.752
		c0-5.641-4.574-10.214-10.214-10.214s-10.214,4.574-10.214,10.214c0,33.325-27.11,60.435-60.435,60.435h-11.916
		c-33.325,0-60.435-27.11-60.435-60.435c0-5.641-4.574-10.214-10.214-10.214c-5.641,0-10.214,4.574-10.214,10.214
		C169.177,228.512,203.167,263.88,245.786,266.101z"/>
	<path style="fill:#231F20;" d="M250.041,225.357h11.916c22.059,0,40.006-17.947,40.006-40.006v-42.561
		c0-22.059-17.947-40.006-40.006-40.006h-11.916c-22.059,0-40.006,17.947-40.006,40.006v42.561
		C210.035,207.41,227.982,225.357,250.041,225.357z M230.464,142.789c0-10.795,8.782-19.577,19.577-19.577h11.916
		c10.795,0,19.577,8.782,19.577,19.577v42.561c0,10.795-8.782,19.577-19.577,19.577h-11.916c-10.795,0-19.577-8.782-19.577-19.577
		V142.789z"/>
</g>
<g>
</g>
<g>
</g>
<g>
</g>
<g>
</g>
<g>
</g>
<g>
</g>
<g>
</g>
<g>
</g>
<g>
</g>
<g>
</g>
<g>
</g>
<g>
</g>
<g>
</g>
<g>
</g>
<g>
</g>
</svg>
