<?xml version="1.0" encoding="iso-8859-1"?>
<!-- Generator: Adobe Illustrator 19.0.0, SVG Export Plug-In . SVG Version: 6.00 Build 0)  -->
<svg version="1.1" id="Layer_1" xmlns="http://www.w3.org/2000/svg" xmlns:xlink="http://www.w3.org/1999/xlink" x="0px" y="0px"
	 viewBox="0 0 512 512" style="enable-background:new 0 0 512 512;" xml:space="preserve">
<polygon style="fill:#EFEFEF;" points="501.961,92.863 501.961,481.882 10.039,481.882 10.039,30.118 129.255,30.118 
	129.255,92.863 "/>
<rect x="129.255" y="30.118" style="fill:#61C7D2;" width="119.216" height="62.745"/>
<rect x="248.471" y="30.118" style="fill:#E8594F;" width="253.49" height="62.745"/>
<rect x="92.863" y="327.529" style="fill:#F4AD47;" width="326.275" height="50.196"/>
<g>
	<circle style="fill:#231F20;" cx="468.078" cy="61.49" r="10.039"/>
	<circle style="fill:#231F20;" cx="434.196" cy="61.49" r="10.039"/>
	<circle style="fill:#231F20;" cx="405.333" cy="61.49" r="10.039"/>
	<rect x="36.392" y="51.451" style="fill:#231F20;" width="66.51" height="20.078"/>
	<rect x="155.608" y="51.451" style="fill:#231F20;" width="18.824" height="20.078"/>
	<rect x="186.98" y="51.451" style="fill:#231F20;" width="38.902" height="20.078"/>
	<path style="fill:#231F20;" d="M501.961,20.078H10.039C4.495,20.078,0,24.573,0,30.118v451.765c0,5.544,4.495,10.039,10.039,10.039
		h491.922c5.544,0,10.039-4.495,10.039-10.039V92.863V30.118C512,24.573,507.505,20.078,501.961,20.078z M139.294,40.157h99.137
		v42.667h-99.137V40.157z M491.922,471.843H20.078V40.157h99.137v52.706c0,5.544,4.495,10.039,10.039,10.039h119.216h243.451
		V471.843z M491.922,82.824H258.51V40.157h233.412V82.824z"/>
	<path style="fill:#231F20;" d="M92.863,317.49c-5.544,0-10.039,4.495-10.039,10.039v50.196c0,5.544,4.495,10.039,10.039,10.039
		h266.039h60.235c5.544,0,10.039-4.495,10.039-10.039v-50.196c0-5.544-4.495-10.039-10.039-10.039h-60.235H92.863z M348.863,367.686
		H102.902v-30.118h245.961V367.686z M368.941,337.569h40.157v30.118h-40.157V337.569z"/>
	<path style="fill:#231F20;" d="M99.849,181.129l14.357,53.583c0.334,2.749,1.787,5.35,4.244,7.05
		c1.743,1.206,3.733,1.783,5.704,1.783c3.184,0,6.316-1.511,8.265-4.328l12.649-18.284l12.434,18.23
		c1.944,2.85,5.096,4.383,8.302,4.383c1.949,0,3.918-0.566,5.648-1.747c2.491-1.699,3.967-4.322,4.302-7.098l14.354-53.573
		c1.436-5.356-1.744-10.86-7.099-12.296c-5.353-1.431-10.859,1.744-12.296,7.099l-9.034,33.719l-8.259-12.107
		c-0.028-0.04-0.055-0.064-0.083-0.103c-0.664-0.947-1.493-1.801-2.5-2.496c-4.559-3.155-10.813-2.017-13.968,2.545l-8.542,12.347
		l-9.084-33.904c-1.437-5.357-6.943-8.53-12.296-7.099C101.593,170.269,98.414,175.773,99.849,181.129z"/>
	<path style="fill:#231F20;" d="M239.35,209.837l-9.085-33.905c-1.436-5.356-6.941-8.53-12.296-7.099
		c-5.356,1.436-8.535,6.94-7.099,12.296l14.359,53.583c0.335,2.748,1.787,5.348,4.243,7.049c1.743,1.206,3.733,1.783,5.704,1.783
		c3.184,0,6.316-1.511,8.265-4.328l12.649-18.284l12.432,18.23c1.944,2.85,5.096,4.383,8.302,4.383c1.949,0,3.918-0.566,5.648-1.747
		c2.491-1.699,3.967-4.322,4.302-7.096l14.356-53.573c1.436-5.356-1.744-10.861-7.099-12.296
		c-5.352-1.431-10.859,1.744-12.296,7.099l-9.035,33.719c0,0-8.841-12.868-8.86-12.889c-0.566-0.675-1.221-1.293-1.979-1.817
		c-4.559-3.155-10.813-2.017-13.968,2.545L239.35,209.837z"/>
	<path style="fill:#231F20;" d="M336.248,234.712c0.334,2.749,1.787,5.35,4.244,7.05c1.743,1.206,3.733,1.783,5.704,1.783
		c3.184,0,6.316-1.511,8.265-4.328l12.649-18.284l12.434,18.23c1.944,2.85,5.096,4.383,8.302,4.383c1.949,0,3.918-0.566,5.648-1.747
		c2.491-1.699,3.967-4.322,4.302-7.098l14.354-53.573c1.436-5.356-1.744-10.86-7.099-12.296c-5.351-1.431-10.86,1.744-12.296,7.099
		l-9.034,33.719l-8.259-12.107c-0.034-0.049-0.069-0.087-0.103-0.132c-0.66-0.935-1.483-1.778-2.478-2.467
		c-4.558-3.155-10.814-2.017-13.968,2.545l-8.542,12.347l-9.084-33.904c-1.436-5.357-6.941-8.53-12.296-7.099
		c-5.356,1.436-8.535,6.94-7.099,12.296L336.248,234.712z"/>
</g>
<g>
</g>
<g>
</g>
<g>
</g>
<g>
</g>
<g>
</g>
<g>
</g>
<g>
</g>
<g>
</g>
<g>
</g>
<g>
</g>
<g>
</g>
<g>
</g>
<g>
</g>
<g>
</g>
<g>
</g>
</svg>
