<?xml version="1.0" encoding="iso-8859-1"?>
<!-- Generator: Adobe Illustrator 19.0.0, SVG Export Plug-In . SVG Version: 6.00 Build 0)  -->
<svg version="1.1" id="Layer_1" xmlns="http://www.w3.org/2000/svg" xmlns:xlink="http://www.w3.org/1999/xlink" x="0px" y="0px"
	 viewBox="0 0 512 512" style="enable-background:new 0 0 512 512;" xml:space="preserve">
<g>
	<path style="fill:#D9D8D7;" d="M444.54,166.623c0,92.014-74.593,166.6-166.6,166.6c-92.022,0-166.643-74.586-166.643-166.6
		C111.297,74.586,185.921,0,277.94,0C369.949,0,444.54,74.586,444.54,166.623z"/>
	<rect x="111.297" y="166.605" style="fill:#D9D8D7;" width="87.706" height="131.533"/>
	<polygon style="fill:#D9D8D7;" points="128.836,298.148 67.46,298.148 111.297,184.148 	"/>
	<polygon style="fill:#D9D8D7;" points="334.934,390.223 120.068,403.41 111.297,298.148 356.84,280.607 	"/>
	<polygon style="fill:#D9D8D7;" points="427.475,459.4 221.398,512 207.763,381.478 387.539,306.944 	"/>
	<polygon style="fill:#D9D8D7;" points="321.77,364.093 387.539,337.615 435.772,219.215 321.77,236.8 	"/>
</g>
<path style="fill:#FFFFFF;" d="M410.661,166.615c0,73.318-59.43,132.733-132.736,132.733c-73.326,0-132.746-59.412-132.746-132.733
	c0-73.311,59.423-132.741,132.746-132.741C351.231,33.874,410.661,93.304,410.661,166.615z"/>
<path style="fill:#FFDB79;" d="M382.217,166.615c0,57.6-46.692,104.282-104.289,104.282c-57.592,0-104.302-46.682-104.302-104.282
	c0-57.597,46.712-104.284,104.302-104.284C335.523,62.331,382.217,109.018,382.217,166.615z"/>
<g>
	<polygon style="fill:#474F59;" points="283.511,92.652 272.309,92.652 269.034,108.982 286.793,108.982 	"/>
	<polygon style="fill:#474F59;" points="245.805,99.74 236.082,105.344 241.409,121.149 256.795,112.238 	"/>
	<polygon style="fill:#474F59;" points="216.68,124.782 211.076,134.482 223.571,145.475 232.467,130.107 	"/>
	<polygon style="fill:#474F59;" points="203.959,161.009 203.972,172.227 220.297,175.493 220.297,157.727 	"/>
	<polygon style="fill:#474F59;" points="211.076,198.733 216.68,208.438 232.467,203.116 223.571,187.745 	"/>
	<polygon style="fill:#474F59;" points="236.082,227.871 245.805,233.462 256.795,220.974 241.409,212.07 	"/>
	<polygon style="fill:#474F59;" points="272.309,240.573 283.511,240.573 286.793,224.233 269.039,224.233 	"/>
	<polygon style="fill:#474F59;" points="310.045,233.462 319.756,227.871 314.423,212.07 299.045,220.974 	"/>
	<polygon style="fill:#474F59;" points="339.163,208.438 344.769,198.733 332.269,187.745 323.386,203.116 	"/>
	<polygon style="fill:#474F59;" points="351.871,172.227 351.871,161.009 335.556,157.727 335.556,175.493 	"/>
	<polygon style="fill:#474F59;" points="344.769,134.482 339.163,124.792 323.386,130.107 332.269,145.475 	"/>
	<polygon style="fill:#474F59;" points="319.756,105.344 310.027,99.758 299.045,112.238 314.423,121.149 	"/>
</g>
<path style="fill:#353F49;" d="M277.912,108.316c-32.195,0-58.301,26.074-58.301,58.296c0,32.215,26.107,58.299,58.301,58.299
	c32.22,0,58.314-26.084,58.314-58.299C336.227,134.39,310.132,108.316,277.912,108.316z M277.912,182.748
	c-8.886,0-16.133-7.235-16.133-16.138c0-8.896,7.247-16.138,16.133-16.138c8.919,0,16.159,7.242,16.159,16.138
	C294.068,175.516,286.831,182.748,277.912,182.748z"/>
<path style="fill:#FFFFFF;" d="M277.912,138.634c-15.462,0-27.976,12.516-27.976,27.978c0,15.47,12.513,27.986,27.976,27.986
	c15.48,0,27.994-12.516,27.994-27.986C305.903,151.148,293.39,138.634,277.912,138.634z M277.912,180.603
	c-7.718,0-13.972-6.269-13.972-13.993c0-7.711,6.254-13.996,13.972-13.996c7.729,0,14.001,6.285,14.001,13.996
	C291.91,174.333,285.638,180.603,277.912,180.603z"/>
<g>
</g>
<g>
</g>
<g>
</g>
<g>
</g>
<g>
</g>
<g>
</g>
<g>
</g>
<g>
</g>
<g>
</g>
<g>
</g>
<g>
</g>
<g>
</g>
<g>
</g>
<g>
</g>
<g>
</g>
</svg>
