<?xml version="1.0" encoding="iso-8859-1"?>
<!-- Generator: Adobe Illustrator 19.0.0, SVG Export Plug-In . SVG Version: 6.00 Build 0)  -->
<svg version="1.1" id="Layer_1" xmlns="http://www.w3.org/2000/svg" xmlns:xlink="http://www.w3.org/1999/xlink" x="0px" y="0px"
	 viewBox="0 0 512 512" style="enable-background:new 0 0 512 512;" xml:space="preserve">
<rect x="26.112" y="413.185" style="fill:#EB7830;" width="460.8" height="51.2"/>
<rect x="51.2" y="144.897" style="fill:#3E81C8;" width="409.6" height="51.2"/>
<path style="fill:#F5C525;" d="M486.912,413.185c-153.6,0-307.2,0-460.8,0c20.035-47.104,40.069-93.184,60.105-140.288
	c113.531,0,227.061,0,340.592,0C446.843,320.001,466.877,366.081,486.912,413.185z"/>
<rect x="86.528" y="196.097" style="fill:#D1D5D8;" width="339.968" height="76.8"/>
<rect x="154.112" y="47.617" style="fill:#EFEFEF;" width="204.8" height="225.28"/>
<g>
	<rect x="10.24" y="129.537" style="fill:#3E81C8;" width="40.96" height="81.92"/>
	<rect x="460.8" y="129.537" style="fill:#3E81C8;" width="40.96" height="81.92"/>
</g>
<path style="fill:#EB7830;" d="M284.331,221.697h-55.637c-11.5,0-20.821,9.322-20.821,20.821v30.379h97.28v-30.379
	C305.152,231.019,295.83,221.697,284.331,221.697z"/>
<g>
	<path style="fill:#231F20;" d="M501.76,119.297H460.8c-5.655,0-10.24,4.584-10.24,10.24v5.12h-81.408v-87.04
		c0-5.656-4.585-10.24-10.24-10.24h-204.8c-5.656,0-10.24,4.584-10.24,10.24v87.04H61.44v-5.12c0-5.656-4.584-10.24-10.24-10.24
		H10.24c-5.656,0-10.24,4.584-10.24,10.24v81.92c0,5.656,4.584,10.24,10.24,10.24H51.2c5.656,0,10.24-4.584,10.24-10.24v-5.12
		h14.848v63.739c-9.847,23.142-49.565,115.51-59.587,139.07c-0.162,0.376-0.809,1.948-0.821,3.858c0,0.06-0.009,0.119-0.009,0.179
		v51.2c0,5.656,4.584,10.24,10.24,10.24h460.8c5.655,0,10.24-4.584,10.24-10.24v-51.2c0-2.432-0.668-3.661-0.829-4.037
		c-10.01-23.535-49.729-115.904-59.587-139.074v-63.737h13.825v5.12c0,5.656,4.585,10.24,10.24,10.24h40.96
		c5.655,0,10.24-4.584,10.24-10.24v-81.92C512,123.881,507.415,119.297,501.76,119.297z M294.912,262.657h-76.8v-20.139
		c0-5.835,4.747-10.581,10.581-10.581h55.637c5.834,0,10.581,4.747,10.581,10.581v20.139H294.912z M164.352,57.857h184.32v204.8
		h-33.28v-20.139c0-17.127-13.934-31.061-31.061-31.061h-55.637c-17.127,0-31.061,13.934-31.061,31.061v20.139h-33.28v-204.8
		H164.352z M40.96,201.217H20.48v-61.44h20.48V201.217z M61.44,155.137h82.432v30.72H61.44V155.137z M143.872,206.337v56.32H96.768
		v-56.32H143.872z M476.672,454.145H36.352v-30.72h440.32V454.145z M471.416,402.945H41.607c8.03-18.804,42.213-98.3,51.379-119.808
		h327.051C429.214,304.67,463.398,384.168,471.416,402.945z M416.256,262.657h-47.104v-56.32h47.104V262.657z M369.152,185.857
		v-30.72h81.408v30.72H369.152z M491.52,201.217h-20.48v-61.44h20.48V201.217z"/>
	<path style="fill:#231F20;" d="M145.237,320.513c0-5.656-4.584-10.24-10.24-10.24h-10.24c-5.656,0-10.24,4.584-10.24,10.24
		c0,5.656,4.584,10.24,10.24,10.24h10.24C140.653,330.753,145.237,326.168,145.237,320.513z"/>
	<path style="fill:#231F20;" d="M273.19,330.753h19.061c5.655,0,10.24-4.584,10.24-10.24c0-5.656-4.585-10.24-10.24-10.24H273.19
		c-5.655,0-10.24,4.584-10.24,10.24C262.95,326.168,267.535,330.753,273.19,330.753z"/>
	<path style="fill:#231F20;" d="M325.608,330.753h19.061c5.655,0,10.24-4.584,10.24-10.24c0-5.656-4.585-10.24-10.24-10.24h-19.061
		c-5.655,0-10.24,4.584-10.24,10.24C315.368,326.168,319.953,330.753,325.608,330.753z"/>
	<path style="fill:#231F20;" d="M220.772,330.753h19.061c5.656,0,10.24-4.584,10.24-10.24c0-5.656-4.584-10.24-10.24-10.24h-19.061
		c-5.656,0-10.24,4.584-10.24,10.24C210.532,326.168,215.117,330.753,220.772,330.753z"/>
	<path style="fill:#231F20;" d="M168.354,330.753h19.061c5.656,0,10.24-4.584,10.24-10.24c0-5.656-4.584-10.24-10.24-10.24h-19.061
		c-5.656,0-10.24,4.584-10.24,10.24C158.114,326.168,162.698,330.753,168.354,330.753z"/>
	<path style="fill:#231F20;" d="M388.267,310.273h-10.24c-5.655,0-10.24,4.584-10.24,10.24c0,5.656,4.585,10.24,10.24,10.24h10.24
		c5.655,0,10.24-4.584,10.24-10.24C398.507,314.857,393.922,310.273,388.267,310.273z"/>
	<path style="fill:#231F20;" d="M104.96,351.233H94.72c-5.656,0-10.24,4.584-10.24,10.24c0,5.656,4.584,10.24,10.24,10.24h10.24
		c5.656,0,10.24-4.584,10.24-10.24C115.2,355.817,110.616,351.233,104.96,351.233z"/>
	<path style="fill:#231F20;" d="M266.29,351.233h-19.555c-5.656,0-10.24,4.584-10.24,10.24c0,5.656,4.584,10.24,10.24,10.24h19.555
		c5.655,0,10.24-4.584,10.24-10.24C276.53,355.817,271.945,351.233,266.29,351.233z"/>
	<path style="fill:#231F20;" d="M373.843,351.233h-19.555c-5.655,0-10.24,4.584-10.24,10.24c0,5.656,4.585,10.24,10.24,10.24h19.555
		c5.655,0,10.24-4.584,10.24-10.24C384.083,355.817,379.499,351.233,373.843,351.233z"/>
	<path style="fill:#231F20;" d="M320.066,351.233H300.51c-5.655,0-10.24,4.584-10.24,10.24c0,5.656,4.585,10.24,10.24,10.24h19.555
		c5.655,0,10.24-4.584,10.24-10.24C330.306,355.817,325.721,351.233,320.066,351.233z"/>
	<path style="fill:#231F20;" d="M158.736,351.233h-19.555c-5.656,0-10.24,4.584-10.24,10.24c0,5.656,4.584,10.24,10.24,10.24h19.555
		c5.656,0,10.24-4.584,10.24-10.24C168.976,355.817,164.392,351.233,158.736,351.233z"/>
	<path style="fill:#231F20;" d="M212.513,351.233h-19.555c-5.656,0-10.24,4.584-10.24,10.24c0,5.656,4.584,10.24,10.24,10.24h19.555
		c5.656,0,10.24-4.584,10.24-10.24C222.753,355.817,218.168,351.233,212.513,351.233z"/>
	<path style="fill:#231F20;" d="M408.064,351.233c-5.655,0-10.24,4.584-10.24,10.24c0,5.656,4.585,10.24,10.24,10.24h10.24
		c5.655,0,10.24-4.584,10.24-10.24c0-5.656-4.585-10.24-10.24-10.24H408.064z"/>
	<path style="fill:#231F20;" d="M221.696,103.425h69.632c5.655,0,10.24-4.584,10.24-10.24c0-5.656-4.585-10.24-10.24-10.24h-69.632
		c-5.656,0-10.24,4.584-10.24,10.24C211.456,98.84,216.04,103.425,221.696,103.425z"/>
	<path style="fill:#231F20;" d="M189.952,144.385h133.12c5.655,0,10.24-4.584,10.24-10.24s-4.585-10.24-10.24-10.24h-133.12
		c-5.656,0-10.24,4.584-10.24,10.24C179.712,139.8,184.296,144.385,189.952,144.385z"/>
	<path style="fill:#231F20;" d="M323.072,185.345c5.655,0,10.24-4.584,10.24-10.24s-4.585-10.24-10.24-10.24h-133.12
		c-5.656,0-10.24,4.584-10.24,10.24s4.584,10.24,10.24,10.24H323.072z"/>
</g>
<g>
</g>
<g>
</g>
<g>
</g>
<g>
</g>
<g>
</g>
<g>
</g>
<g>
</g>
<g>
</g>
<g>
</g>
<g>
</g>
<g>
</g>
<g>
</g>
<g>
</g>
<g>
</g>
<g>
</g>
</svg>
